<svg xmlns="http://www.w3.org/2000/svg" xmlns:xlink="http://www.w3.org/1999/xlink" width="32px" height="32px" viewBox="0 0 32 32"><title>Infinite</title><g id="3.-Landing" stroke="none" stroke-width="1" fill="none" fill-rule="evenodd"><g id="Landing-page_08" transform="translate(-589.000000, -2744.000000)" fill="#FFFFFF" fill-rule="nonzero"><g id="Infinite" transform="translate(589.000000, 2744.000000)"><path d="M31.0625,10.0416875 C31.58025,10.0416875 32,10.461375 32,10.9791875 L32,10.9791875 L32,23.0291875 C32,23.2778125 31.9011875,23.51625 31.725375,23.6920625 L31.725375,23.6920625 L25.975,29.4425 L25.975,31.0625 C25.975,31.58025 25.55525,32 25.0375,32 L25.0375,32 L18.008375,32 C17.490625,32 17.070875,31.58025 17.070875,31.0625 L17.070875,31.0625 L17.070875,25.6973125 C17.070875,24.373875 17.5861875,23.12975 18.5218125,22.194125 L18.5218125,22.194125 L21.86425,18.8516875 C23.038625,17.677375 24.91075,17.65925 26.108375,18.761375 L26.108375,18.761375 L26.108375,14.9948125 C26.108375,12.2648125 28.32975,10.0416875 31.0615,10.0416875 L31.0615,10.0416875 Z M0.9385625,10.041625 C3.6703125,10.041625 5.8916875,12.2646875 5.8916875,14.99475 L5.8916875,14.99475 L5.8916875,18.7613125 C7.0893125,17.6591875 8.9614375,17.6773125 10.1358125,18.851625 L10.1358125,18.851625 L13.47825,22.1940625 C14.413875,23.1296875 14.9291875,24.3738125 14.9291875,25.69725 L14.9291875,25.69725 L14.9291875,31.0625 C14.9291875,31.58025 14.5094375,32 13.9916875,32 L13.9916875,32 L6.9625,32 C6.44475,32 6.025,31.58025 6.025,31.0625 L6.025,31.0625 L6.025,29.4425 L0.274625,23.692 C0.0988125,23.5161875 -2.99316127e-13,23.27775 -2.99316127e-13,23.029125 L-2.99316127e-13,23.029125 L-2.99316127e-13,10.979125 C-2.99316127e-13,10.461375 0.41975,10.041625 0.9375,10.041625 L0.9375,10.041625 Z M30.1250625,12.06425 C28.3536875,12.6328125 27.983375,14.2741875 27.983375,14.9948125 L27.983375,14.9948125 L27.983375,21.020875 C27.983375,21.2695 27.8845625,21.5079375 27.70875,21.68375 L27.70875,21.68375 L23.6920625,25.7004375 C23.3259375,26.0665 22.7323125,26.0665625 22.36625,25.7004375 C22.0001875,25.3343125 22.0001875,24.74075 22.36625,24.374625 L22.36625,24.374625 L24.8766875,21.8641875 C25.3426875,21.398125 25.3430625,20.6439375 24.8766875,20.1775 C24.4104375,19.71125 23.6565,19.7110625 23.19,20.1775 L23.19,20.1775 L19.847625,23.5199375 C19.2660625,24.1014375 18.9458125,24.8746875 18.9458125,25.69725 L18.9458125,25.69725 L18.9458125,30.125 L24.1,30.125 L24.1,29.054125 C24.1,28.8055 24.1988125,28.5670625 24.374625,28.39125 L24.374625,28.39125 L30.1250625,22.6408125 Z M1.875,12.06425 L1.875,22.6408125 L7.625375,28.3913125 C7.8011875,28.567125 7.9,28.8055625 7.9,29.0541875 L7.9,29.0541875 L7.9,30.125 L13.05425,30.125 L13.05425,25.69725 C13.05425,24.8746875 12.734,24.1014375 12.1524375,23.5199375 L12.1524375,23.5199375 L8.8100625,20.1775 C8.3435625,19.7110625 7.5896875,19.71125 7.123375,20.1775 C6.657,20.6439375 6.657375,21.398125 7.123375,21.8641875 L7.123375,21.8641875 L9.6338125,24.374625 C9.9999375,24.74075 9.9999375,25.334375 9.6338125,25.7004375 C9.26775,26.0665625 8.674125,26.0665 8.308,25.7004375 L8.308,25.7004375 L4.2913125,21.68375 C4.1155,21.5079375 4.0166875,21.2695625 4.0166875,21.020875 L4.0166875,21.020875 L4.0166875,14.9948125 C4.0166875,14.2741875 3.646375,12.6328125 1.875,12.06425 L1.875,12.06425 Z M27.04475,-5.32907052e-13 C27.5625625,-5.32907052e-13 27.9833125,0.41975 27.9833125,0.9375 C27.9833125,7.229625 23.108625,12.4045 16.9375,12.8843125 L16.9375,12.8843125 L16.9375,19.0125 C16.9375,19.53025 16.51775,19.95 16,19.95 C15.48225,19.95 15.0625,19.53025 15.0625,19.0125 L15.0625,19.0125 L15.0625,12.8843125 C8.891375,12.4045 4.0166875,7.229625 4.0166875,0.9375 C4.0166875,0.41975 4.4364375,-5.32907052e-13 4.9541875,-5.32907052e-13 C9.9155,-5.32907052e-13 14.1816875,3.0300625 16,7.3365 C17.81825,3.0300625 22.08425,-5.32907052e-13 27.04475,-5.32907052e-13 Z M5.93925,1.9225 C6.404625,6.7114375 10.2260625,10.532875 15.0149375,10.9981875 C14.55,6.2089375 10.7285,2.3874375 5.93925,1.9225 Z M26.06075,1.922625 C21.2711875,2.3879375 17.4499375,6.2093125 16.9850625,10.99825 C21.7739375,10.532875 25.5953125,6.7115 26.06075,1.922625 Z" id="Combined-Shape"></path></g></g></g></svg>