<svg xmlns="http://www.w3.org/2000/svg" xmlns:xlink="http://www.w3.org/1999/xlink" width="45px" height="44px" viewBox="0 0 45 44"><title>Innovative</title><g id="3.-Landing" stroke="none" stroke-width="1" fill="none" fill-rule="evenodd"><g id="Landing-page_08" transform="translate(-973.000000, -2346.000000)" fill="#FFFFFF" fill-rule="nonzero"><g id="Innovative" transform="translate(973.000000, 2346.000000)"><path d="M41.0396507,0.179659044 C42.1828274,-0.224482328 43.4370561,0.374686071 43.841289,1.51777131 C44.2455218,2.66085655 43.6464449,3.91526819 42.5032682,4.31940956 L42.5032682,4.31940956 L42.5032682,10.3085322 C42.5032682,10.5026445 42.4260624,10.6887069 42.2888482,10.825921 L42.2888482,10.825921 L37.1661871,15.9485821 C37.028973,16.0857963 36.8429106,16.1630021 36.6487983,16.1630021 L36.6487983,16.1630021 L32.9897547,16.1630021 C32.9946029,18.0354262 32.3383534,19.84958 31.136815,21.2856632 L31.136815,21.2856632 L36.3458295,21.2856632 L39.7904532,17.8410395 L39.8094802,17.8600665 C39.6579958,17.5607568 39.5780457,17.2302536 39.5760333,16.8948108 C39.5760333,15.6822952 40.5589439,14.6993846 41.7714595,14.6993846 C42.9839751,14.6993846 43.9668857,15.6822952 43.9668857,16.8948108 C43.9668857,18.1073264 42.9839751,19.090237 41.7714595,19.090237 C41.4360166,19.0882245 41.1055135,19.0082744 40.8062037,18.85679 L40.8062037,18.85679 L40.8252308,18.875817 L37.1661871,22.5348607 C37.028973,22.6720748 36.8429106,22.7492807 36.6487983,22.7492807 L36.6487983,22.7492807 L31.136815,22.7492807 C32.1768981,23.9927152 32.8106445,25.5252141 32.9524324,27.1401331 L32.9524324,27.1401331 L36.3458295,27.1401331 L39.7955759,23.6896549 C39.6523243,23.3967484 39.5773139,23.0753015 39.5760333,22.7492807 C39.5760333,21.5367651 40.5589439,20.5538545 41.7714595,20.5538545 C42.9839751,20.5538545 43.9668857,21.5367651 43.9668857,22.7492807 C43.9668857,23.9617963 42.9839751,24.9447069 41.7714595,24.9447069 C41.4454387,24.9434262 41.1239917,24.8684158 40.8310852,24.7251642 L40.8310852,24.7251642 L37.1661871,28.3893306 C37.028973,28.5265447 36.8429106,28.6037505 36.6487983,28.6037505 L36.6487983,28.6037505 L32.953896,28.6037505 C32.8867526,29.3226611 32.722553,30.029131 32.4657796,30.7040416 L32.4657796,30.7040416 L34.0245322,32.2627942 L37.0776383,32.2627942 L39.6155509,29.7248815 C39.5872848,29.577422 39.5741123,29.4274927 39.5760333,29.2773805 C39.5921331,28.0488565 40.6010229,27.0658545 41.8296383,27.0819543 C43.0582536,27.0980541 44.0411642,28.1070353 44.0252594,29.3355593 C44.0089647,30.5640832 42.999988,31.5470852 41.7714595,31.5309854 C41.2646819,31.5285156 40.774736,31.349131 40.3861455,31.023842 L40.3861455,31.023842 L37.8979958,33.5119917 C37.7607817,33.6492058 37.5747193,33.7264116 37.3806071,33.7264116 L37.3806071,33.7264116 L33.7215634,33.7264116 C33.5274511,33.7264116 33.3413888,33.6492058 33.2041746,33.5119917 L33.2041746,33.5119917 L31.7837339,32.0915509 C31.4021871,32.7096549 30.9394096,33.2736965 30.4079335,33.7688565 L30.4079335,33.7688565 L32.5609148,35.9218378 L35.9169896,35.9218378 C36.1111019,35.9218378 36.2971642,35.9990437 36.4343784,36.1362578 L36.4343784,36.1362578 L38.4153846,38.117264 L39.7106861,38.117264 C39.9316923,37.4921164 40.4234678,37.0002495 41.0487069,36.7792432 C42.1918836,36.3750104 43.4462952,36.9740873 43.8503451,38.117264 C44.254578,39.2603493 43.6554096,40.5146694 42.5123243,40.9189023 C41.3692391,41.3231351 40.1148274,40.7240582 39.7106861,39.5808815 L39.7106861,39.5808815 L38.1124158,39.5808815 C37.9183035,39.5808815 37.7322412,39.5036757 37.595027,39.3664615 L37.595027,39.3664615 L35.6140208,37.3854553 L32.2579459,37.3854553 C32.0636507,37.3849979 31.8774969,37.3073347 31.7405572,37.1695717 L31.7405572,37.1695717 L29.2385031,34.6675177 C28.5874678,35.085289 27.878894,35.4058212 27.1352848,35.618869 L27.1352848,35.618869 L27.1352848,37.0824865 L29.8539543,39.8004241 C30.1468607,39.6571726 30.4683077,39.5821622 30.7943285,39.5808815 C32.0068441,39.5808815 32.9897547,40.5637921 32.9897547,41.7763077 C32.9897547,42.9888233 32.0068441,43.9717339 30.7943285,43.9717339 C29.5818129,43.9717339 28.5989023,42.9888233 28.5989023,41.7763077 C28.6003659,41.4502869 28.6757422,41.1287484 28.8191767,40.8359335 L28.8191767,40.8359335 L27.08479,39.1015468 C26.979684,39.3875925 26.7082744,39.5785946 26.4034761,39.5808815 L26.4034761,39.5808815 L23.4762412,39.5808815 C23.0720998,39.5808815 22.7444324,39.2532141 22.7444324,38.8490728 L22.7444324,38.8490728 L22.7444324,35.9218378 L21.280815,35.9218378 L21.280815,38.8490728 C21.280815,39.2532141 20.9531476,39.5808815 20.5490062,39.5808815 L20.5490062,39.5808815 L17.6217713,39.5808815 C17.2176299,39.5808815 16.8899626,39.2532141 16.8899626,38.8490728 L16.8899626,38.8490728 L16.8899626,35.9218378 L14.6945364,35.9218378 L14.6945364,37.3854553 C14.6947193,37.5793846 14.6177879,37.7655385 14.4808482,37.9028441 L14.4808482,37.9028441 L11.5477588,40.8359335 C11.6910104,41.1288399 11.7660208,41.4502869 11.7673015,41.7763077 C11.7673015,42.9888233 10.7843909,43.9717339 9.57187526,43.9717339 C8.35935967,43.9717339 7.37644906,42.9888233 7.37644906,41.7763077 C7.37644906,40.5637921 8.35935967,39.5808815 9.57187526,39.5808815 C9.89789605,39.5821622 10.219343,39.6571726 10.5122495,39.8004241 L10.5122495,39.8004241 L13.2309189,37.0824865 L13.2309189,35.9218378 L11.7673015,35.9218378 C11.3631601,35.9218378 11.0354927,35.5941705 11.0354927,35.1900291 L11.0354927,35.1900291 L11.0354927,32.9946029 L7.67941788,32.9946029 L4.22967152,36.4450811 C4.37292308,36.7379875 4.44793347,37.0594345 4.44921414,37.3854553 C4.44921414,38.5979709 3.46630353,39.5808815 2.25378794,39.5808815 C1.04127235,39.5808815 0.0583617464,38.5979709 0.0583617464,37.3854553 C0.0583617464,36.1729397 1.04127235,35.1900291 2.25378794,35.1900291 C2.57980873,35.1913098 2.90125572,35.2663202 3.19416216,35.4095717 L3.19416216,35.4095717 L6.85906029,31.7454054 C6.99627443,31.6081913 7.1823368,31.5309854 7.37644906,31.5309854 L7.37644906,31.5309854 L11.0354927,31.5309854 L11.0354927,27.8719418 L6.94760915,27.8719418 L4.40969647,30.4098545 C4.43796258,30.5573139 4.45113514,30.7072432 4.44921414,30.8573555 C4.43311435,32.0859709 3.42413306,33.0688815 2.19560915,33.0527817 C0.966993763,33.0366819 -0.0159168399,32.0277006 -1.20387984e-05,30.7991767 C0.0162827443,29.5705613 1.02526403,28.5876507 2.25378794,28.6037505 C2.76056549,28.6062204 3.25051143,28.785605 3.63910187,29.110894 L3.63910187,29.110894 L6.12725156,26.6227443 C6.2644657,26.4855301 6.45052807,26.4083243 6.64464033,26.4083243 L6.64464033,26.4083243 L11.0354927,26.4083243 L11.0354927,24.2128981 L8.1082578,24.2128981 C7.91414553,24.2128981 7.72808316,24.1356923 7.59086902,23.9984782 L7.59086902,23.9984782 L5.60986279,22.0174719 L4.31456133,22.0174719 C4.09355509,22.6426195 3.60177963,23.1344865 2.97654054,23.3554927 C1.8334553,23.7597256 0.579043659,23.1606486 0.174902287,22.0174719 C-0.229330561,20.8743867 0.369837838,19.6200665 1.51292308,19.2158337 C2.65600832,18.8116008 3.91041996,19.4106778 4.31456133,20.5538545 L4.31456133,20.5538545 L5.9128316,20.5538545 C6.10694387,20.5538545 6.29300624,20.6310603 6.43022037,20.7682744 L6.43022037,20.7682744 L8.41122661,22.7492807 L11.0354927,22.7492807 L11.0354927,18.6613971 L7.80528898,15.4311933 L4.31456133,15.4311933 C4.09355509,16.056341 3.60177963,16.5482079 2.97654054,16.7692141 C1.8334553,17.173447 0.579043659,16.5743701 0.174902287,15.4311933 C-0.229330561,14.2881081 0.369837838,13.0337879 1.51292308,12.6295551 C2.65600832,12.2253222 3.91041996,12.8243992 4.31456133,13.9675759 L4.31456133,13.9675759 L8.1082578,13.9675759 C8.30237006,13.9675759 8.48843243,14.0447817 8.62564657,14.1819958 L8.62564657,14.1819958 L11.0354927,16.591842 L11.0354927,12.5039584 L5.9128316,12.5039584 C5.71871933,12.5039584 5.53265696,12.4267526 5.39544283,12.2895385 L5.39544283,12.2895385 L1.73639917,8.6304948 C1.59918503,8.49328067 1.52197921,8.3072183 1.52197921,8.11310603 L1.52197921,8.11310603 L1.52197921,4.31940956 C0.896831601,4.09840333 0.404964657,3.60662786 0.18395842,2.98138877 C-0.220274428,1.83821206 0.378802495,0.583800416 1.52197921,0.179659044 C2.66515593,-0.224482328 3.91938462,0.374686071 4.32361746,1.51777131 C4.72785031,2.66085655 4.12877339,3.91526819 2.98559667,4.31940956 L2.98559667,4.31940956 L2.98559667,7.81013721 L6.21580042,11.0402495 L11.0354927,11.0402495 L11.0354927,9.1477921 L9.04863202,7.1616632 C8.75572557,7.30491476 8.43427859,7.37992516 8.1082578,7.38120582 C6.8957422,7.38120582 5.9128316,6.39829522 5.9128316,5.18577963 C5.9128316,3.97326403 6.8957422,2.99035343 8.1082578,2.99035343 C9.32077339,2.99035343 10.303684,3.97326403 10.303684,5.18577963 C10.3024033,5.51180042 10.2273929,5.8332474 10.0841414,6.12615385 L10.0841414,6.12615385 L12.0702703,8.11301455 L15.1233763,8.11301455 L13.4453389,6.43497713 C13.3081247,6.29776299 13.2309189,6.11170062 13.2309189,5.91758836 L13.2309189,5.91758836 L13.2309189,4.31931809 C12.6057713,4.09831185 12.1139044,3.60653638 11.8928981,2.9812973 C11.4886653,1.83821206 12.0877422,0.583800416 13.2309189,0.179659044 C14.3740956,-0.224482328 15.6283243,0.374594595 16.0325572,1.51767983 C16.43679,2.66076507 15.8377131,3.91517672 14.6945364,4.31931809 L14.6945364,4.31931809 L14.6945364,5.61461954 L16.8899626,7.81004574 L16.8899626,5.18577963 C16.8899626,4.78163825 17.2176299,4.45397089 17.6217713,4.45397089 L17.6217713,4.45397089 L20.5490062,4.45397089 C20.9531476,4.45397089 21.280815,4.78163825 21.280815,5.18577963 L21.280815,5.18577963 L21.280815,8.11301455 L22.7444324,8.11301455 L22.7444324,5.18577963 C22.7444324,4.78163825 23.0720998,4.45397089 23.4762412,4.45397089 L23.4762412,4.45397089 L26.4034761,4.45397089 C26.8076175,4.45397089 27.1352848,4.78163825 27.1352848,5.18577963 L27.1352848,5.18577963 L27.1352848,8.41671518 C27.8788025,8.62912266 28.5872848,8.9488316 29.2385031,9.3658711 L29.2385031,9.3658711 L31.5261372,7.07823701 L31.5261372,4.31931809 C30.9009896,4.09831185 30.4091227,3.60653638 30.1881164,2.9812973 C29.7838836,1.83821206 30.3829605,0.583800416 31.5261372,0.179659044 C32.6693139,-0.224482328 33.9235426,0.374686071 34.3277755,1.51777131 C34.7320083,2.66085655 34.1329314,3.91526819 32.9897547,4.31940956 L32.9897547,4.31940956 L32.9897547,7.38120582 C32.9894802,7.57540956 32.9120915,7.76147193 32.7746029,7.89859459 L32.7746029,7.89859459 L30.4072017,10.2659958 C30.8090561,10.6412308 31.1716674,11.0563493 31.4895468,11.504948 L31.4895468,11.504948 L34.6729148,8.32158004 C34.5296632,8.0286736 34.4546528,7.70722661 34.4533721,7.38120582 C34.4533721,6.16869023 35.4362827,5.18577963 36.6487983,5.18577963 C37.8613139,5.18577963 38.8442245,6.16869023 38.8442245,7.38120582 C38.8442245,8.59372141 37.8613139,9.57663202 36.6487983,9.57663202 C36.3227775,9.57535135 36.0013306,9.50034096 35.7084241,9.3570894 L35.7084241,9.3570894 L32.2506279,12.8141538 C32.527526,13.4154262 32.7291393,14.0486237 32.850711,14.6992931 L32.850711,14.6992931 L36.3458295,14.6992931 L41.0396507,10.0054719 L41.0396507,4.31931809 C40.4145031,4.09831185 39.9226362,3.60653638 39.7016299,2.9812973 C39.2973971,1.83821206 39.896474,0.583800416 41.0396507,0.179659044 Z M9.57187526,41.044499 C9.16773389,41.044499 8.84006653,41.3721663 8.84006653,41.7763077 C8.84006653,42.1804491 9.16773389,42.5081164 9.57187526,42.5081164 C9.97601663,42.5081164 10.303684,42.1804491 10.303684,41.7763077 C10.303684,41.3721663 9.97601663,41.044499 9.57187526,41.044499 Z M30.7943285,41.044499 C30.3901871,41.044499 30.0625198,41.3721663 30.0625198,41.7763077 C30.0625198,42.1804491 30.3901871,42.5081164 30.7943285,42.5081164 C31.1984699,42.5081164 31.5261372,42.1804491 31.5261372,41.7763077 C31.5261372,41.3721663 31.1984699,41.044499 30.7943285,41.044499 Z M41.7714595,38.117264 C41.3673181,38.117264 41.0396507,38.4449314 41.0396507,38.8490728 C41.0396507,39.2532141 41.3673181,39.5808815 41.7714595,39.5808815 C42.1756008,39.5808815 42.5032682,39.2532141 42.5032682,38.8490728 C42.5032682,38.4449314 42.1756008,38.117264 41.7714595,38.117264 Z M19.8171975,5.91767983 L18.35358,5.91767983 L18.35358,8.84491476 C18.35358,9.24905613 18.0259127,9.57672349 17.6217713,9.57672349 L17.6217713,9.57672349 L12.4991102,9.57672349 L12.4991102,34.4582204 L17.6217713,34.4582204 C18.0259127,34.4582204 18.35358,34.7858877 18.35358,35.1900291 L18.35358,35.1900291 L18.35358,38.117264 L19.8171975,38.117264 L19.8171975,35.1900291 C19.8171975,34.7858877 20.1448649,34.4582204 20.5490062,34.4582204 L20.5490062,34.4582204 L23.4762412,34.4582204 C23.8803825,34.4582204 24.2080499,34.7858877 24.2080499,35.1900291 L24.2080499,35.1900291 L24.2080499,38.117264 L25.6716674,38.117264 L25.6716674,35.0429356 C25.6715759,34.6951435 25.9163659,34.3952848 26.2571143,34.325763 C29.3202827,33.6938462 31.5199168,30.9996008 31.5261624,27.8719418 C31.5319002,25.7944283 30.5488067,23.8381206 28.8784532,22.6029189 C28.8230187,22.5612973 28.7737131,22.5119917 28.7320915,22.4565572 C28.4895884,22.1331892 28.5550852,21.6745281 28.8784532,21.4320249 C30.5488981,20.1968233 31.5319002,18.2405156 31.5261624,16.1630021 C31.5202827,13.0350686 29.3205572,10.3403659 26.2571143,9.70844906 C25.9163659,9.63892723 25.6715759,9.33906861 25.6716674,8.99127651 L25.6716674,8.99127651 L25.6716674,5.91767983 L24.2080499,5.91767983 L24.2080499,8.84491476 C24.2080499,9.24905613 23.8803825,9.57672349 23.4762412,9.57672349 L23.4762412,9.57672349 L20.5490062,9.57672349 C20.1448649,9.57672349 19.8171975,9.24905613 19.8171975,8.84491476 L19.8171975,8.84491476 L19.8171975,5.91767983 Z M2.25378794,36.6536466 C1.84964657,36.6536466 1.52197921,36.9813139 1.52197921,37.3854553 C1.52197921,37.7895967 1.84964657,38.117264 2.25378794,38.117264 C2.65792931,38.117264 2.98559667,37.7895967 2.98559667,37.3854553 C2.98559667,36.9813139 2.65792931,36.6536466 2.25378794,36.6536466 Z M24.9398586,22.7492807 C27.7690312,22.7492807 30.0625198,25.0427692 30.0625198,27.8719418 C30.0625198,30.7011143 27.7690312,32.9946029 24.9398586,32.9946029 L24.9398586,32.9946029 L14.6945364,32.9946029 C14.290395,32.9946029 13.9627277,32.6669356 13.9627277,32.2627942 L13.9627277,32.2627942 L13.9627277,23.4810894 C13.9627277,23.076948 14.290395,22.7492807 14.6945364,22.7492807 L14.6945364,22.7492807 Z M2.25378794,30.067368 C1.84964657,30.067368 1.52197921,30.3950353 1.52197921,30.7991767 C1.52197921,31.2033181 1.84964657,31.5309854 2.25378794,31.5309854 C2.65792931,31.5309854 2.98559667,31.2033181 2.98559667,30.7991767 C2.98559667,30.3950353 2.65792931,30.067368 2.25378794,30.067368 Z M24.9398586,24.2128981 L15.4263451,24.2128981 L15.4263451,31.5309854 L24.9398586,31.5309854 C26.960657,31.5309854 28.5989023,29.8927401 28.5989023,27.8719418 C28.5989023,25.8511435 26.960657,24.2128981 24.9398586,24.2128981 L24.9398586,24.2128981 Z M41.7714595,28.6037505 C41.3673181,28.6037505 41.0396507,28.9314179 41.0396507,29.3355593 C41.0396507,29.7397006 41.3673181,30.067368 41.7714595,30.067368 C42.1756008,30.067368 42.5032682,29.7397006 42.5032682,29.3355593 C42.5032682,28.9314179 42.1756008,28.6037505 41.7714595,28.6037505 Z M41.7714595,22.0174719 C41.3673181,22.0174719 41.0396507,22.3451393 41.0396507,22.7492807 C41.0396507,23.153422 41.3673181,23.4810894 41.7714595,23.4810894 C42.1756008,23.4810894 42.5032682,23.153422 42.5032682,22.7492807 C42.5032682,22.3451393 42.1756008,22.0174719 41.7714595,22.0174719 Z M2.25378794,20.5538545 C1.84964657,20.5538545 1.52197921,20.8815218 1.52197921,21.2856632 C1.52197921,21.6898046 1.84964657,22.0174719 2.25378794,22.0174719 C2.65792931,22.0174719 2.98559667,21.6898046 2.98559667,21.2856632 C2.98559667,20.8815218 2.65792931,20.5538545 2.25378794,20.5538545 Z M24.9398586,11.040341 C27.7690312,11.040341 30.0625198,13.3338295 30.0625198,16.1630021 C30.0625198,18.9921746 27.7690312,21.2856632 24.9398586,21.2856632 L24.9398586,21.2856632 L14.6945364,21.2856632 C14.290395,21.2856632 13.9627277,20.9579958 13.9627277,20.5538545 L13.9627277,20.5538545 L13.9627277,11.7721497 C13.9627277,11.3680083 14.290395,11.040341 14.6945364,11.040341 L14.6945364,11.040341 Z M24.9398586,12.5039584 L15.4263451,12.5039584 L15.4263451,19.8220457 L24.9398586,19.8220457 C26.960657,19.8220457 28.5989023,18.1838004 28.5989023,16.1630021 C28.5989023,14.1422037 26.960657,12.5039584 24.9398586,12.5039584 L24.9398586,12.5039584 Z M41.7714595,16.1630021 C41.3673181,16.1630021 41.0396507,16.4906694 41.0396507,16.8948108 C41.0396507,17.2989522 41.3673181,17.6266195 41.7714595,17.6266195 C42.1756008,17.6266195 42.5032682,17.2989522 42.5032682,16.8948108 C42.5032682,16.4906694 42.1756008,16.1630021 41.7714595,16.1630021 Z M2.25378794,13.9675759 C1.84964657,13.9675759 1.52197921,14.2952432 1.52197921,14.6993846 C1.52197921,15.103526 1.84964657,15.4311933 2.25378794,15.4311933 C2.65792931,15.4311933 2.98559667,15.103526 2.98559667,14.6993846 C2.98559667,14.2952432 2.65792931,13.9675759 2.25378794,13.9675759 Z M36.6487983,6.64948857 C36.244657,6.64948857 35.9169896,6.97715593 35.9169896,7.3812973 C35.9169896,7.78543867 36.244657,8.11310603 36.6487983,8.11310603 C37.0529397,8.11310603 37.3806071,7.78543867 37.3806071,7.3812973 C37.3806071,6.97715593 37.0529397,6.64948857 36.6487983,6.64948857 Z M8.1082578,4.45406237 C7.70411642,4.45406237 7.37644906,4.78172973 7.37644906,5.1858711 C7.37644906,5.59001247 7.70411642,5.91767983 8.1082578,5.91767983 C8.51239917,5.91767983 8.84006653,5.59001247 8.84006653,5.1858711 C8.84006653,4.78172973 8.51239917,4.45406237 8.1082578,4.45406237 Z M41.7714595,1.52682744 C41.3673181,1.52682744 41.0396507,1.8544948 41.0396507,2.25863617 C41.0396507,2.66277755 41.3673181,2.99044491 41.7714595,2.99044491 C42.1756008,2.99044491 42.5032682,2.66277755 42.5032682,2.25863617 C42.5032682,1.8544948 42.1756008,1.52682744 41.7714595,1.52682744 Z M32.2579459,1.52682744 C31.8538046,1.52682744 31.5261372,1.8544948 31.5261372,2.25863617 C31.5261372,2.66277755 31.8538046,2.99044491 32.2579459,2.99044491 C32.6620873,2.99044491 32.9897547,2.66277755 32.9897547,2.25863617 C32.9897547,1.8544948 32.6620873,1.52682744 32.2579459,1.52682744 Z M13.9627277,1.52682744 C13.5585863,1.52682744 13.2309189,1.8544948 13.2309189,2.25863617 C13.2309189,2.66277755 13.5585863,2.99044491 13.9627277,2.99044491 C14.366869,2.99044491 14.6945364,2.66277755 14.6945364,2.25863617 C14.6945364,1.8544948 14.366869,1.52682744 13.9627277,1.52682744 Z M2.25378794,1.52682744 C1.84964657,1.52682744 1.52197921,1.8544948 1.52197921,2.25863617 C1.52197921,2.66277755 1.84964657,2.99044491 2.25378794,2.99044491 C2.65792931,2.99044491 2.98559667,2.66277755 2.98559667,2.25863617 C2.98559667,1.8544948 2.65792931,1.52682744 2.25378794,1.52682744 Z" id="Combined-Shape"></path></g></g></g></svg>