<svg xmlns="http://www.w3.org/2000/svg" xmlns:xlink="http://www.w3.org/1999/xlink" width="36px" height="36px" viewBox="0 0 36 36"><title>P2P</title><g id="3.-Landing" stroke="none" stroke-width="1" fill="none" fill-rule="evenodd"><g id="Landing-page_08" transform="translate(-197.000000, -2742.000000)" fill="#FFFFFF" fill-rule="nonzero"><g id="P2P" transform="translate(197.000000, 2742.000000)"><path d="M35.0999451,19.8001098 C35.5970764,19.8001098 36,20.2030334 36,20.6998902 L36,20.6998902 L36,31.5 C36,31.9971313 35.5970764,32.4000549 35.0999451,32.4000549 L35.0999451,32.4000549 L28.7998352,32.4000549 L28.7998352,34.1998902 L31.5,34.1998902 C31.9971313,34.1998902 32.4000549,34.6028137 32.4000549,35.0999451 C32.4000549,35.5970764 31.9971313,36 31.5,36 L31.5,36 L24.2998352,36 C23.8029785,36 23.4000549,35.5970764 23.4000549,35.0999451 C23.4000549,34.6028137 23.8029785,34.1998902 24.2998352,34.1998902 L24.2998352,34.1998902 L27,34.1998902 L27,32.4000549 L20.6998902,32.4000549 C20.2030334,32.4000549 19.8001098,31.9971313 19.8001098,31.5 L19.8001098,31.5 L19.8001098,20.6998902 C19.8001098,20.2030334 20.2030334,19.8001098 20.6998902,19.8001098 L20.6998902,19.8001098 Z M34.2001648,21.5999451 L21.5999451,21.5999451 L21.5999451,30.5999451 L34.2001648,30.5999451 L34.2001648,21.5999451 Z M6.30010983,19.8001098 C6.79724121,19.8001098 7.20016481,20.2030334 7.20016481,20.7001648 L7.20016481,20.7001648 L7.20016481,27 L15.2998352,27 C15.7969666,27 16.1998902,27.4029236 16.1998902,27.9000549 C16.1998902,28.3971863 15.7969666,28.8001098 15.3001098,28.8001098 L15.3001098,28.8001098 L6.30010983,28.8001098 C5.80297852,28.8001098 5.40005491,28.3971863 5.40005491,27.9000549 L5.40005491,27.9000549 L5.40005491,20.7001648 C5.40005491,20.2030334 5.80297852,19.8001098 6.30010983,19.8001098 Z M15.2998352,-6.69686528e-13 C15.7969666,-6.69686528e-13 16.1998902,0.402923602 16.1998902,0.900054914 L16.1998902,0.900054914 L16.1998902,11.6998902 C16.1998902,12.1970215 15.7969666,12.5999451 15.2998352,12.5999451 L15.2998352,12.5999451 L9,12.5999451 L9,14.4000549 L11.7001648,14.4000549 C12.1970215,14.4000549 12.5999451,14.8029785 12.5999451,15.2998352 C12.5999451,15.7969666 12.1970215,16.1998902 11.7001648,16.1998902 L11.7001648,16.1998902 L4.5,16.1998902 C4.00286869,16.1998902 3.59994509,15.7969666 3.59994509,15.2998352 C3.59994509,14.8029785 4.00286869,14.4000549 4.5,14.4000549 L4.5,14.4000549 L7.19989017,14.4000549 L7.19989017,12.5999451 L0.900054914,12.5999451 C0.402923602,12.5999451 9.219292e-13,12.1970215 9.219292e-13,11.6998902 L9.219292e-13,11.6998902 L9.219292e-13,0.900054914 C9.219292e-13,0.402923602 0.402923602,-6.69686528e-13 0.900054914,-6.69686528e-13 L0.900054914,-6.69686528e-13 Z M29.6998902,5.40005491 C30.1970215,5.40005491 30.5999451,5.80297852 30.5999451,6.30010983 L30.5999451,6.30010983 L30.5999451,15.3001098 C30.5999451,15.7969666 30.1970215,16.1998902 29.6998902,16.1998902 C29.2027588,16.1998902 28.7998352,15.7969666 28.7998352,15.3001098 L28.7998352,15.3001098 L28.7998352,7.20016481 L20.6998902,7.20016481 C20.2030334,7.20016481 19.8001098,6.79696657 19.8001098,6.30010983 C19.8001098,5.80297852 20.2030334,5.40005491 20.6998902,5.40005491 L20.6998902,5.40005491 Z M14.4000549,1.80010983 L1.80010983,1.80010983 L1.80010983,10.8001098 L14.4000549,10.8001098 L14.4000549,1.80010983 Z" id="Combined-Shape"></path></g></g></g></svg>