<svg xmlns="http://www.w3.org/2000/svg" xmlns:xlink="http://www.w3.org/1999/xlink" width="33px" height="33px" viewBox="0 0 33 33"><title>2EC68DC8-CCC4-49AA-85A9-B7C0DA9D8313</title><g id="3.-Landing" stroke="none" stroke-width="1" fill="none" fill-rule="evenodd"><g id="Landing-page_08" transform="translate(-589.000000, -2352.000000)" fill="#F0F4F9"><g id="route" transform="translate(589.000000, 2352.000000)"><path d="M20.3900625,2.93906313e-14 C26.4073125,2.93906313e-14 29.758375,6.9398125 26.12775,11.658625 L26.12775,11.658625 L21.198125,18.44 C20.9924375,18.7226875 20.7313125,18.8888125 20.39,18.8888125 L20.39,18.8888125 L11.086125,18.8888125 C10.206125,18.8888125 9.49025,19.6058125 9.49025,20.487125 C9.49025,21.3684375 10.206125,22.0854375 11.086125,22.0854375 L11.086125,22.0854375 L28.4685,22.0854375 C30.41575,22.0854375 32,23.67075 32,25.619375 C32,27.568 30.41575,29.1533125 28.4685,29.1533125 L28.4685,29.1533125 L7.4455,29.1533125 C7.027625,30.787875 5.5434375,32 3.7815625,32 C1.6964375,32 0,30.3024375 0,28.2158125 C0,26.1291875 1.6964375,24.4315625 3.7815625,24.431625 C5.5434375,24.431625 7.027625,25.6436875 7.4455,27.2783125 L7.4455,27.2783125 L28.4685,27.2783125 C29.381875,27.2783125 30.125,26.534125 30.125,25.619375 C30.125,24.704625 29.381875,23.9604375 28.4685,23.9604375 L28.4685,23.9604375 L11.086125,23.9604375 C9.17225,23.9604375 7.61525,22.4023125 7.61525,20.487125 C7.61525,18.5719375 9.17225,17.0138125 11.086125,17.0138125 L11.086125,17.0138125 L18.623375,17.0138125 L14.6198125,11.61725 C11.012375,6.738625 14.49375,2.93906313e-14 20.3900625,2.93906313e-14 Z M3.7815625,26.306625 C2.7303125,26.306625 1.875,27.163125 1.875,28.2158125 C1.875,29.2685 2.7303125,30.125 3.7815625,30.125 C4.8328125,30.125 5.688125,29.2685 5.688125,28.2158125 C5.688125,27.163125 4.8328125,26.306625 3.7815625,26.306625 Z M20.3900625,1.875 C15.9429375,1.875 13.4605,6.9930625 16.120125,10.4913125 C16.1249375,10.4975625 20.4274375,16.298625 20.432125,16.304875 C20.4373125,16.29775 24.6213125,10.5415625 24.6291875,10.5314375 C27.3316875,7.0454375 24.86575,1.875 20.3900625,1.875 Z M20.39,4.3405 C21.941,4.3405 23.20275,5.603 23.20275,7.1549375 C23.20275,8.706875 21.941,9.9694375 20.39,9.969375 C18.8390625,9.969375 17.5773125,8.7068125 17.5773125,7.1549375 C17.5773125,5.6030625 18.839125,4.3405 20.39,4.3405 Z M20.39,6.2155625 C19.8729375,6.2155625 19.4523125,6.637 19.4523125,7.155 C19.4523125,7.673 19.873,8.0944375 20.39,8.0944375 C20.907125,8.0944375 21.32775,7.673 21.32775,7.155 C21.32775,6.637 20.9070625,6.2155625 20.39,6.2155625 Z" id="Combined-Shape"></path></g></g></g></svg>