<svg xmlns="http://www.w3.org/2000/svg" xmlns:xlink="http://www.w3.org/1999/xlink" width="32px" height="32px" viewBox="0 0 32 32"><title>Sovereign</title><g id="3.-Landing" stroke="none" stroke-width="1" fill="none" fill-rule="evenodd"><g id="Landing-page_08" transform="translate(-199.000000, -2352.000000)" fill="#FFFFFF" fill-rule="nonzero"><g id="Sovereign" transform="translate(199.000000, 2352.000000)"><path d="M28.5625,20.7326875 C26.9920625,20.7326875 25.66525,21.791625 25.256,23.2326875 L21.9375,23.2326875 L21.9375,19.573 L25.3258125,19.573 C29.006,19.573 32,16.579 32,12.8988125 C32,9.948125 30.043,7.356 27.26475,6.51175 C26.4249375,3.149 23.3894375,0.7371875 19.873875,0.7371875 C18.5110625,0.7371875 17.2055625,1.088625 16.0534375,1.7600625 C14.83325,0.6441875 13.2333125,0.0173125 11.55225,0.0173125 C7.9464375,0.0173125 4.9993125,2.89175 4.8816875,6.469375 C2.027875,7.2670625 0,9.88 0,12.8988125 C0,16.579 2.994,19.573 6.6741875,19.573 L10.0625,19.573 L10.0625,23.2326875 L6.744,23.2326875 C6.3348125,21.791625 5.0079375,20.7326875 3.4375,20.7326875 C1.5420625,20.7326875 0,22.27475 0,24.1701875 C0,26.065625 1.5420625,27.6076875 3.4375,27.6076875 C5.0079375,27.6076875 6.33475,26.54875 6.744,25.1076875 L11,25.1076875 C11.51775,25.1076875 11.9375,24.6879375 11.9375,24.1701875 L11.9375,19.573 L15.0625,19.573 L15.0625,25.2386875 C13.6214375,25.647875 12.5625,26.97475 12.5625,28.5451875 C12.5625,30.440625 14.1045625,31.9826875 16,31.9826875 C17.8954375,31.9826875 19.4375,30.440625 19.4375,28.5451875 C19.4375,26.97475 18.3785625,25.6479375 16.9375,25.2386875 L16.9375,19.573 L20.0625,19.573 L20.0625,24.1701875 C20.0625,24.6879375 20.48225,25.1076875 21,25.1076875 L25.256,25.1076875 C25.6651875,26.54875 26.9920625,27.6076875 28.5625,27.6076875 C30.4579375,27.6076875 32,26.065625 32,24.1701875 C32,22.27475 30.4579375,20.7326875 28.5625,20.7326875 Z M3.4375,25.7326875 C2.5759375,25.7326875 1.875,25.03175 1.875,24.1701875 C1.875,23.308625 2.5759375,22.6076875 3.4375,22.6076875 C4.2990625,22.6076875 5,23.308625 5,24.1701875 C5,25.03175 4.2990625,25.7326875 3.4375,25.7326875 Z M17.5625,28.5451875 C17.5625,29.40675 16.8615625,30.1076875 16,30.1076875 C15.1384375,30.1076875 14.4375,29.40675 14.4375,28.5451875 C14.4375,27.683625 15.1384375,26.9826875 16,26.9826875 C16.8615625,26.9826875 17.5625,27.683625 17.5625,28.5451875 Z M6.6741875,17.698 C4.0279375,17.698 1.875,15.545125 1.875,12.8988125 C1.875,10.533625 3.6379375,8.4921875 5.975625,8.1503125 C6.4689375,8.0781875 6.8194375,7.6325625 6.7734375,7.1361875 C6.759875,6.98975 6.753,6.840125 6.753,6.6914375 C6.753,4.04525 8.9059375,1.892375 11.5521875,1.892375 C12.9640625,1.892375 14.2955,2.506125 15.205,3.57625 C15.5243125,3.9519375 16.08,4.0160625 16.4765625,3.7230625 C17.4598125,2.9963125 18.6345625,2.6121875 19.8738125,2.6121875 C22.7255625,2.6121875 25.097125,4.704625 25.5404375,7.4265625 C25.603125,7.8114375 25.8975625,8.1173125 26.27975,8.1946875 C28.5078125,8.64575 30.1249375,10.6240625 30.1249375,12.8988125 C30.1249375,15.545125 27.972,17.698 25.32575,17.698 L6.6741875,17.698 Z M28.5625,25.7326875 C27.7009375,25.7326875 27,25.03175 27,24.1701875 C27,23.308625 27.7009375,22.6076875 28.5625,22.6076875 C29.4240625,22.6076875 30.125,23.308625 30.125,24.1701875 C30.125,25.03175 29.4240625,25.7326875 28.5625,25.7326875 Z" id="Shape"></path></g></g></g></svg>