<svg xmlns="http://www.w3.org/2000/svg" xmlns:xlink="http://www.w3.org/1999/xlink" width="27px" height="32px" viewBox="0 0 27 32"><title>User</title><g id="3.-Landing" stroke="none" stroke-width="1" fill="none" fill-rule="evenodd"><g id="Landing-page_08" transform="translate(-982.000000, -2744.000000)" fill="#FFFFFF"><g id="User" transform="translate(982.000000, 2744.000000)"><g id="reward-(2)" transform="translate(0.200000, 0.000000)"><path d="M12.8,0 C19.8525465,0 25.5902416,5.6591875 25.5902416,12.6154375 C25.5902416,16.950625 23.3615208,20.7818125 19.9750337,23.053625 L19.9750337,23.053625 L19.9750337,31.0769375 C19.9750337,31.390125 19.8139564,31.682 19.5473109,31.8520625 C19.3935208,31.950125 19.2167287,32 19.0390495,32 C18.9085782,32 18.7777267,31.9730625 18.6551129,31.9186875 L18.6551129,31.9186875 L12.8,29.3199375 L6.94488713,31.918625 C6.6552396,32.0470625 6.31927129,32.0220625 6.05268911,31.852 C5.7859802,31.682 5.62496634,31.390125 5.62496634,31.076875 L5.62496634,31.076875 L5.62496634,23.0535625 C2.23847921,20.78175 0.00975841584,16.9505625 0.00975841584,12.615375 C0.00975841584,5.6591875 5.74745347,0 12.8,0 Z M18.1034455,24.0971875 C17.6330772,24.3086875 17.1502891,24.490375 16.6583762,24.6436875 L16.6583762,24.6436875 L16.5746693,24.669875 L16.5746693,24.669875 L16.3858376,24.725375 C16.3392,24.738875 16.2924356,24.75225 16.2456079,24.76525 C16.1947248,24.7793125 16.1436515,24.79275 16.0925782,24.8061875 C16.0329505,24.8219375 15.9733228,24.83725 15.9134416,24.8520625 C15.8710495,24.8624375 15.8286574,24.8726875 15.7862653,24.8826875 C15.7173861,24.899 15.6483168,24.91475 15.5789941,24.9299375 L15.5789941,24.9299375 L15.4710812,24.9531875 C15.395105,24.969125 15.3189386,24.984375 15.2425188,24.999 C15.2114059,25.005 15.1802931,25.011 15.1491168,25.01675 C15.0681347,25.031625 14.9868356,25.0455625 14.9053465,25.0589375 L14.9053465,25.0589375 L14.8214495,25.0726875 C14.737299,25.0859375 14.6528317,25.098125 14.5681743,25.1096875 C14.5419406,25.1133125 14.5158337,25.117125 14.4895366,25.1205625 C14.403802,25.13175 14.3177505,25.14175 14.2315089,25.1513125 C14.2057822,25.1541875 14.1801822,25.157375 14.1544554,25.1600625 C14.0684673,25.169 13.9821624,25.17675 13.8956673,25.184 C13.8694337,25.1861875 13.8433267,25.188875 13.8170297,25.190875 C13.731802,25.1975625 13.6461941,25.2028125 13.5604594,25.2078125 C13.532895,25.2094375 13.5054574,25.2115625 13.4779564,25.213 C13.3913347,25.2174375 13.304396,25.2205625 13.2173307,25.2233125 C13.191097,25.2241875 13.1650535,25.2255625 13.1388198,25.22625 C13.0262812,25.229125 12.9133624,25.23075 12.8001267,25.23075 C12.6868277,25.23075 12.5739089,25.229125 12.4613703,25.22625 C12.4351366,25.2255625 12.4090931,25.2241875 12.3828594,25.2233125 C12.2957941,25.2205625 12.2088554,25.2175 12.1222337,25.213 C12.0946059,25.2115625 12.0672317,25.2094375 12.0397307,25.2078125 C11.953996,25.2028125 11.8683881,25.1975 11.7831604,25.190875 C11.7568634,25.188875 11.7307564,25.1861875 11.7045228,25.184 C11.6180277,25.17675 11.5317228,25.1690625 11.4457347,25.1600625 C11.4200079,25.1573125 11.3944079,25.154125 11.3686812,25.1513125 C11.282503,25.1418125 11.1963881,25.13175 11.1106535,25.1205625 C11.0844198,25.117125 11.0582495,25.11325 11.0320158,25.1096875 C10.947295,25.098125 10.8628277,25.0859375 10.7787406,25.0726875 C10.7507327,25.0683125 10.7227881,25.0635625 10.6948436,25.0589375 C10.6133545,25.0455625 10.5320554,25.031625 10.4510733,25.01675 L10.4510733,25.01675 L10.3576713,24.999 C10.2811881,24.9843125 10.2050218,24.9691875 10.1291089,24.9531875 L10.1291089,24.9531875 L10.021196,24.9299375 C9.95187327,24.91475 9.88280396,24.899 9.81392475,24.8826875 L9.81392475,24.8826875 L9.68674851,24.8520625 C9.62686733,24.8371875 9.56717624,24.821875 9.50761188,24.8061875 C9.45653861,24.7928125 9.40546535,24.77925 9.35458218,24.76525 L9.35458218,24.76525 L9.21435248,24.725375 C9.15130297,24.7073125 9.08831683,24.6889375 9.02552079,24.669875 C8.99751287,24.661375 8.96969505,24.6524375 8.94181386,24.6436875 C8.44990099,24.490375 7.96711287,24.308625 7.49674455,24.097125 L7.49674455,24.097125 L7.49674455,29.6493125 L12.416,27.4659375 C12.5381069,27.4116875 12.6690851,27.384625 12.8,27.384625 C12.9309149,27.384625 13.0618931,27.41175 13.184,27.466 L13.184,27.466 L18.1034455,29.649375 Z M12.8,1.846125 C6.77950099,1.846125 1.88147327,6.67725 1.88147327,12.615375 C1.88147327,17.3234375 4.96069703,21.3350625 9.23691089,22.795125 C9.2741703,22.8078125 9.31149307,22.8205625 9.34900594,22.832875 C9.40597228,22.851625 9.46306535,22.87 9.52041188,22.887875 C9.5872,22.9085625 9.65417822,22.9284375 9.7212198,22.947875 C9.76855446,22.961625 9.81595248,22.9753125 9.86354059,22.9884375 C9.95231683,23.0128125 10.0414099,23.0363125 10.1308198,23.0584375 L10.1308198,23.0584375 L10.231002,23.082625 C10.3185109,23.1035 10.4064,23.1234375 10.4944792,23.142125 C10.5166574,23.14675 10.5387089,23.1518125 10.5608238,23.156375 C10.6744396,23.17975 10.7885624,23.201625 10.9030653,23.2214375 C10.9147881,23.2235 10.9265109,23.2253125 10.9381703,23.22725 C11.0413307,23.2448125 11.1448079,23.2606875 11.2485386,23.2753125 L11.2485386,23.2753125 L11.3187485,23.2850625 C11.4293228,23.299875 11.5400871,23.3135 11.6512317,23.325 C11.6554139,23.3254375 11.659596,23.326 11.6637782,23.3264375 C11.7801822,23.3383125 11.896903,23.348125 12.0138139,23.356375 C12.0392238,23.3581875 12.0646337,23.3595625 12.0900436,23.3611875 C12.1809743,23.367 12.271905,23.371625 12.3630891,23.3751875 C12.3940119,23.3764375 12.424998,23.37775 12.4560475,23.3786875 C12.5705505,23.3823125 12.6851802,23.384625 12.8,23.384625 C12.9148198,23.384625 13.0294495,23.38225 13.1439525,23.3788125 C13.1749386,23.3778125 13.2059248,23.3765625 13.2369109,23.3753125 C13.328095,23.3716875 13.4190257,23.367125 13.5099564,23.3613125 C13.5353663,23.359625 13.5608396,23.3583125 13.5861861,23.3565 C13.703097,23.3483125 13.8198812,23.3385 13.9362218,23.3265625 C13.940404,23.326125 13.9445861,23.3255625 13.9487683,23.325125 C14.0599129,23.313625 14.1706772,23.3 14.2812515,23.2851875 L14.2812515,23.2851875 L14.3515248,23.2754375 C14.4551921,23.260875 14.5586693,23.2449375 14.6618297,23.227375 C14.6735525,23.2253125 14.6852752,23.2235625 14.6969347,23.2215625 C14.8114376,23.20175 14.925497,23.1799375 15.0391762,23.1565 L15.0391762,23.1565 L15.1055208,23.14225 C15.1936,23.1235 15.2814891,23.103625 15.368998,23.08275 L15.368998,23.08275 L15.4691802,23.0585625 C15.5585901,23.036375 15.6476832,23.013 15.7364594,22.9885625 C15.7840475,22.9754375 15.8314455,22.96175 15.8787802,22.948 C15.9458851,22.928625 16.0128,22.9086875 16.0795248,22.888 L16.0795248,22.888 L16.2509307,22.833 L16.2509307,22.833 L16.3630257,22.79525 C20.6392396,21.3350625 23.7185267,17.3234375 23.7185267,12.615375 C23.7185267,6.6771875 18.820499,1.846125 12.8,1.846125 Z M12.8,4.30775 C13.1227881,4.30775 13.4227644,4.471875 13.5937901,4.741875 L13.5937901,4.741875 L15.5761426,7.87275 L19.3163406,8.0005625 C19.6389386,8.0115625 19.9330218,8.185875 20.0944158,8.4615625 C20.2558099,8.73725 20.2618297,9.0755625 20.1101307,9.356625 L20.1101307,9.356625 L18.3522851,12.615375 L20.1100673,15.874125 C20.2617663,16.1551875 20.2557465,16.4935 20.0943525,16.7691875 C19.9329584,17.044875 19.6388752,17.2191875 19.3162772,17.2301875 L19.3162772,17.2301875 L15.5760792,17.358 L13.5937901,20.488875 C13.4227644,20.758875 13.1227881,20.923 12.8,20.923 C12.4772119,20.923 12.1771723,20.758875 12.0062099,20.488875 L12.0062099,20.488875 L10.0239208,17.358 L6.28372277,17.2301875 C5.96112475,17.2191875 5.66704158,17.044875 5.50564752,16.7691875 C5.34425347,16.4935 5.33823366,16.1551875 5.48993267,15.874125 L5.48993267,15.874125 L7.24777822,12.615375 L5.48993267,9.356625 C5.33823366,9.0755625 5.34425347,8.73725 5.50564752,8.4615625 C5.66704158,8.185875 5.96112475,8.0115625 6.28372277,8.0005625 L6.28372277,8.0005625 L10.0239208,7.87275 L12.0062099,4.741875 C12.1772356,4.471875 12.4772119,4.30775 12.8,4.30775 Z M12.8,6.9734375 L11.3477069,9.267125 C11.1828911,9.5275625 10.8974257,9.690125 10.5863604,9.70075 L10.5863604,9.70075 L7.84627327,9.7944375 L9.13406733,12.1818125 C9.28031683,12.452875 9.28031683,12.777875 9.13406733,13.0489375 L9.13406733,13.0489375 L7.84627327,15.4363125 L10.5863604,15.53 C10.8974257,15.5406875 11.1828277,15.7031875 11.3477069,15.963625 L11.3477069,15.963625 L12.8,18.257375 L14.2523564,15.9635625 C14.4171723,15.703125 14.7026376,15.5405625 15.013703,15.5299375 L15.013703,15.5299375 L17.7537901,15.436375 L16.465996,13.049 C16.3197465,12.778 16.3197465,12.4529375 16.4659327,12.181875 L16.4659327,12.181875 L17.7537901,9.7945 L15.0136396,9.7008125 C14.7025743,9.690125 14.4171723,9.527625 14.2522931,9.2671875 L14.2522931,9.2671875 L12.8,6.9734375 Z" id="Combined-Shape"></path></g></g></g></g></svg>